<svg width="16" height="16" viewBox="0 0 16 16" fill="none" xmlns="http://www.w3.org/2000/svg">
<path d="M8 0C5.35625 0 3.2 1.96023 3.2 4.36364C3.2 6.76705 5.35625 8.72727 8 8.72727C10.6438 8.72727 12.8 6.76705 12.8 4.36364C12.8 1.96023 10.6438 0 8 0ZM8 8.72727C3.59375 8.72727 0 11.9943 0 16H1.6C1.6 12.7784 4.45625 10.1818 8 10.1818C11.5438 10.1818 14.4 12.7784 14.4 16H16C16 11.9943 12.4062 8.72727 8 8.72727ZM8 1.45455C9.775 1.45455 11.2 2.75 11.2 4.36364C11.2 5.97727 9.775 7.27273 8 7.27273C6.225 7.27273 4.8 5.97727 4.8 4.36364C4.8 2.75 6.225 1.45455 8 1.45455Z" fill="white"/>
</svg>
