<svg width="16" height="16" viewBox="0 0 16 16" fill="none" xmlns="http://www.w3.org/2000/svg">
<g clip-path="url(#clip0)">
<path d="M12.8802 15.1553C12.7552 15.1553 12.6311 15.1183 12.5246 15.0461L8.50158 12.3172L6.34385 13.8698C6.17462 13.9915 5.9565 14.0222 5.76 13.9519C5.56375 13.8815 5.41471 13.7189 5.36151 13.5174L4.27808 9.41148L0.406879 7.93125C0.163171 7.83802 0.00154394 7.60487 -0.000229404 7.34394C-0.00200274 7.083 0.156416 6.84766 0.398941 6.75114L15.1187 0.894048C15.1855 0.865674 15.2561 0.849292 15.3274 0.844901C15.3529 0.843381 15.3785 0.843381 15.4039 0.844816C15.5515 0.853599 15.6965 0.913723 15.8097 1.02468C15.8214 1.03617 15.8326 1.04791 15.8431 1.06015C15.9369 1.16723 15.9884 1.29778 15.9981 1.43078C16.0004 1.46422 16.0003 1.49808 15.9973 1.53194C15.9953 1.55609 15.9918 1.58016 15.9869 1.60406L13.5023 14.6406C13.4624 14.85 13.3198 15.0253 13.1229 15.1069C13.0448 15.1394 12.9623 15.1553 12.8802 15.1553ZM8.85482 11.0262L12.4384 13.457L14.3717 3.31314L7.38919 10.0321L8.83793 11.0148C8.84375 11.0185 8.84933 11.0223 8.85482 11.0262ZM5.87164 10.4857L6.35145 12.3038L7.38522 11.5599L6.03157 10.6417C5.96866 10.5991 5.91479 10.5461 5.87164 10.4857ZM2.37571 7.32781L5.03386 8.3441C5.22428 8.41689 5.36801 8.577 5.42003 8.77409L5.75713 10.0517C5.77258 9.9043 5.83938 9.76564 5.94789 9.66119L12.6012 3.25909L2.37571 7.32781Z" fill="white"/>
</g>
<defs>
<clipPath id="clip0">
<rect width="16" height="16" fill="white"/>
</clipPath>
</defs>
</svg>
